<svg fill="none" height="32" viewBox="0 0 32 32" width="32" xmlns="http://www.w3.org/2000/svg" xmlns:xlink="http://www.w3.org/1999/xlink"><filter id="a" color-interpolation-filters="sRGB" filterUnits="userSpaceOnUse" height="32" width="32" x="0" y="0"><feFlood flood-opacity="0" result="BackgroundImageFix"/><feColorMatrix in="SourceAlpha" result="hardAlpha" type="matrix" values="0 0 0 0 0 0 0 0 0 0 0 0 0 0 0 0 0 0 127 0"/><feOffset dy="2"/><feGaussianBlur stdDeviation="1"/><feComposite in2="hardAlpha" operator="out"/><feColorMatrix type="matrix" values="0 0 0 0 0 0 0 0 0 0 0 0 0 0 0 0 0 0 0.08 0"/><feBlend in2="BackgroundImageFix" mode="normal" result="effect1_dropShadow_155_2286"/><feBlend in="SourceGraphic" in2="effect1_dropShadow_155_2286" mode="normal" result="shape"/></filter><g filter="url(#a)"><path d="m9 0c-1.85652 0-3.63699.737498-4.94975 2.05025-1.31275 1.31276-2.05025 3.09323-2.05025 4.94975v1.75c0 .46413.18437.90925.51256 1.23744.32819.32816.77331.51256 1.23744.51256s.90925-.1844 1.23744-.51256c.32819-.32819.51256-.77331.51256-1.23744v-1.75c0-.92826.36875-1.8185 1.02513-2.47487.65637-.65638 1.54661-1.02513 2.47487-1.02513h1.75c.4641 0 .9092-.18437 1.2374-.51256s.5126-.77331.5126-1.23744-.1844-.909248-.5126-1.237437c-.3282-.328188-.7733-.512563-1.2374-.512563zm12.25 0c-.4641 0-.9092.184375-1.2374.512563-.3282.328189-.5126.773307-.5126 1.237437s.1844.90925.5126 1.23744.7733.51256 1.2374.51256h1.75c.9283 0 1.8185.36875 2.4749 1.02513.6564.65637 1.0251 1.54661 1.0251 2.47487v1.75c0 .46413.1844.90925.5126 1.23744.3282.32816.7733.51256 1.2374.51256s.9092-.1844 1.2374-.51256c.3282-.32819.5126-.77331.5126-1.23744v-1.75c0-1.85652-.7375-3.63699-2.0503-4.94975-1.3127-1.312752-3.0932-2.05025-4.9497-2.05025zm-15.75 19.25c0-.4641-.18437-.9092-.51256-1.2374s-.77331-.5126-1.23744-.5126-.90925.1844-1.23744.5126-.51256.7733-.51256 1.2374v1.75c0 1.8565.7375 3.637 2.05025 4.9497 1.31276 1.3128 3.09323 2.0503 4.94975 2.0503h1.75c.4641 0 .9092-.1844 1.2374-.5126s.5126-.7733.5126-1.2374-.1844-.9092-.5126-1.2374-.7733-.5126-1.2374-.5126h-1.75c-.92826 0-1.8185-.3687-2.47487-1.0251-.65638-.6564-1.02513-1.5466-1.02513-2.4749zm24.5 0c0-.4641-.1844-.9092-.5126-1.2374s-.7733-.5126-1.2374-.5126-.9092.1844-1.2374.5126-.5126.7733-.5126 1.2374v1.75c0 .9283-.3687 1.8185-1.0251 2.4749s-1.5466 1.0251-2.4749 1.0251h-1.75c-.4641 0-.9092.1844-1.2374.5126s-.5126.7733-.5126 1.2374.1844.9092.5126 1.2374.7733.5126 1.2374.5126h1.75c1.8565 0 3.637-.7375 4.9497-2.0503 1.3128-1.3127 2.0503-3.0932 2.0503-4.9497zm-19.25-7c-.4641 0-.90925.1844-1.23744.5126s-.51256.7733-.51256 1.2374.18437.9092.51256 1.2374.77334.5126 1.23744.5126h10.5c.4641 0 .9092-.1844 1.2374-.5126s.5126-.7733.5126-1.2374-.1844-.9092-.5126-1.2374-.7733-.5126-1.2374-.5126z" fill="#fd6844"/></g></svg>